<svg width="488" height="425" viewBox="0 0 488 425" fill="none" xmlns="http://www.w3.org/2000/svg">
<g clip-path="url(#clip0_28_101)">
<path d="M440.045 220.998C440.108 273.545 419.797 324.07 383.382 361.953C381.186 364.251 378.932 366.495 376.618 368.682C373.093 372.036 369.449 375.259 365.687 378.353C330.492 407.349 286.556 423.643 240.966 424.606C239.447 424.64 237.922 424.657 236.391 424.657C200.032 424.657 154.301 405.237 112.8 378.353C109.366 376.129 105.963 373.853 102.591 371.526C101.014 370.448 99.4457 369.355 97.8846 368.247C81.8783 356.944 66.685 344.532 52.4169 331.102C43.0751 322.335 34.3149 312.968 26.1922 303.06C-5.69597 263.726 -12.7294 228.284 32.7326 220.998C38.1151 220.139 43.3391 219.22 48.4044 218.241C55.7416 216.831 62.7636 215.308 69.4702 213.673C78.5041 211.477 86.9916 209.096 94.9326 206.53C97.6038 205.671 100.214 204.794 102.763 203.899C140.446 190.664 165.668 173.404 182.836 154.677C185.748 151.507 188.432 148.299 190.889 145.053C194.649 140.111 198.064 134.917 201.11 129.507C205.314 121.99 208.846 114.116 211.663 105.976L211.818 105.529C225.477 66.1262 221.322 29.5778 236.391 17.3453C300.81 -34.9494 381.009 39.5231 418.652 127.346C420.549 131.771 422.334 136.223 424.006 140.702C424.757 142.703 425.481 144.707 426.178 146.715C428.013 151.948 429.677 157.195 431.171 162.456C431.744 164.462 432.291 166.466 432.811 168.469C433.367 170.63 433.9 172.785 434.393 174.94C438.056 190.721 440.045 206.284 440.045 220.998Z" fill="#DCE3F1"/>
<path d="M240.966 424.606C239.447 424.64 237.922 424.657 236.391 424.657C200.032 424.657 154.301 405.237 112.8 378.353C109.366 376.129 105.963 373.853 102.591 371.526L105.549 353.527L195.091 341.638L240.031 376.002L240.966 424.606Z" fill="#3D3D3D"/>
<path d="M245.276 103.208H232.517C232.121 103.208 231.742 103.365 231.463 103.645C231.183 103.924 231.026 104.303 231.026 104.698V117.464C231.026 117.659 231.065 117.853 231.14 118.033C231.215 118.213 231.325 118.377 231.464 118.515C231.602 118.653 231.766 118.762 231.947 118.837C232.128 118.911 232.321 118.949 232.517 118.948H245.276C245.671 118.949 246.049 118.792 246.328 118.514C246.608 118.236 246.765 117.858 246.767 117.464V104.698C246.766 104.303 246.608 103.925 246.329 103.646C246.05 103.366 245.671 103.209 245.276 103.208Z" fill="white"/>
<path d="M245.276 124.961H232.517C232.121 124.962 231.742 125.119 231.463 125.398C231.183 125.678 231.026 126.057 231.026 126.452V139.217C231.026 139.413 231.065 139.606 231.14 139.787C231.215 139.967 231.325 140.131 231.464 140.269C231.602 140.407 231.766 140.516 231.947 140.59C232.128 140.665 232.321 140.703 232.517 140.702H245.276C245.671 140.702 246.049 140.546 246.328 140.268C246.608 139.989 246.765 139.612 246.767 139.217V126.452C246.766 126.057 246.608 125.678 246.329 125.399C246.05 125.12 245.671 124.963 245.276 124.961Z" fill="#B8B8B8"/>
<path d="M245.276 146.715H232.517C232.121 146.715 231.742 146.872 231.463 147.152C231.183 147.431 231.026 147.81 231.026 148.205V160.965C231.026 161.161 231.064 161.355 231.139 161.536C231.214 161.717 231.323 161.882 231.462 162.02C231.6 162.158 231.765 162.268 231.946 162.343C232.127 162.418 232.321 162.456 232.517 162.456H245.276C245.672 162.455 246.051 162.298 246.33 162.019C246.61 161.739 246.767 161.361 246.767 160.965V148.205C246.766 147.811 246.608 147.432 246.329 147.153C246.05 146.874 245.671 146.716 245.276 146.715Z" fill="#B8B8B8"/>
<path d="M246.744 169.695C246.68 169.352 246.499 169.042 246.231 168.818C245.963 168.594 245.625 168.47 245.276 168.469H232.517C232.121 168.469 231.742 168.626 231.463 168.905C231.183 169.185 231.026 169.564 231.026 169.959V182.719C231.026 182.915 231.064 183.109 231.139 183.29C231.214 183.471 231.323 183.635 231.462 183.774C231.6 183.912 231.765 184.022 231.946 184.097C232.127 184.171 232.321 184.21 232.517 184.209H245.276C245.672 184.209 246.051 184.052 246.33 183.773C246.61 183.493 246.767 183.114 246.767 182.719V169.959C246.768 169.871 246.76 169.782 246.744 169.695Z" fill="#B8B8B8"/>
<path d="M245.855 190.337C245.672 190.261 245.475 190.222 245.276 190.222H232.517C232.321 190.222 232.127 190.26 231.946 190.335C231.765 190.41 231.6 190.52 231.462 190.658C231.323 190.796 231.214 190.961 231.139 191.142C231.064 191.323 231.026 191.517 231.026 191.713V204.473C231.025 204.669 231.063 204.863 231.138 205.044C231.212 205.225 231.322 205.39 231.461 205.528C231.599 205.667 231.764 205.777 231.945 205.851C232.126 205.926 232.321 205.964 232.517 205.963H245.276C245.672 205.963 246.051 205.806 246.33 205.526C246.61 205.247 246.767 204.868 246.767 204.473V191.713C246.766 191.419 246.679 191.133 246.517 190.888C246.355 190.644 246.125 190.452 245.855 190.337Z" fill="#B8B8B8"/>
<path d="M272.08 103.208H259.32C258.925 103.208 258.546 103.365 258.267 103.645C257.987 103.924 257.83 104.303 257.83 104.698V117.464C257.83 117.659 257.869 117.853 257.944 118.033C258.019 118.213 258.129 118.377 258.267 118.515C258.406 118.653 258.57 118.762 258.751 118.837C258.931 118.911 259.125 118.949 259.32 118.948H272.08C272.474 118.949 272.853 118.792 273.132 118.514C273.411 118.236 273.569 117.858 273.57 117.464V104.698C273.569 104.303 273.412 103.925 273.133 103.646C272.853 103.366 272.475 103.209 272.08 103.208Z" fill="#B8B8B8"/>
<path d="M272.08 124.961H259.32C258.925 124.962 258.546 125.119 258.267 125.398C257.987 125.678 257.83 126.057 257.83 126.452V139.217C257.83 139.413 257.869 139.606 257.944 139.787C258.019 139.967 258.129 140.131 258.267 140.269C258.406 140.407 258.57 140.516 258.751 140.59C258.931 140.665 259.125 140.703 259.32 140.702H272.08C272.474 140.702 272.853 140.546 273.132 140.268C273.411 139.989 273.569 139.612 273.57 139.217V126.452C273.569 126.057 273.412 125.678 273.133 125.399C272.853 125.12 272.475 124.963 272.08 124.961Z" fill="#5FE36A"/>
<path d="M272.08 146.715H259.32C258.925 146.715 258.546 146.872 258.267 147.152C257.987 147.431 257.83 147.81 257.83 148.205V160.965C257.83 161.161 257.868 161.355 257.943 161.536C258.017 161.717 258.127 161.882 258.266 162.02C258.404 162.158 258.568 162.268 258.749 162.343C258.93 162.418 259.124 162.456 259.32 162.456H272.08C272.475 162.455 272.854 162.298 273.134 162.019C273.413 161.739 273.57 161.361 273.57 160.965V148.205C273.569 147.811 273.412 147.432 273.133 147.153C272.853 146.874 272.475 146.716 272.08 146.715Z" fill="#5FE36A"/>
<path d="M272.08 168.469H259.32C259.008 168.469 258.703 168.568 258.45 168.751C258.197 168.934 258.008 169.192 257.91 169.489C257.857 169.64 257.83 169.799 257.83 169.959V182.719C257.83 182.915 257.868 183.109 257.943 183.29C258.017 183.471 258.127 183.635 258.265 183.774C258.404 183.912 258.568 184.022 258.749 184.097C258.93 184.171 259.124 184.21 259.32 184.209H272.08C272.475 184.209 272.854 184.052 273.134 183.773C273.413 183.493 273.57 183.114 273.57 182.719V169.959C273.569 169.564 273.412 169.186 273.133 168.906C272.853 168.627 272.475 168.47 272.08 168.469Z" fill="#5FE36A"/>
<path d="M272.08 190.222H259.32C259.124 190.222 258.93 190.26 258.749 190.335C258.568 190.41 258.404 190.52 258.266 190.658C258.127 190.796 258.017 190.961 257.943 191.142C257.868 191.323 257.83 191.517 257.83 191.713V204.473C257.83 204.668 257.868 204.862 257.943 205.043C258.017 205.224 258.127 205.389 258.266 205.527C258.404 205.666 258.568 205.776 258.749 205.85C258.93 205.925 259.124 205.963 259.32 205.963H272.08C272.475 205.963 272.854 205.806 273.134 205.526C273.413 205.247 273.57 204.868 273.57 204.473V191.713C273.57 191.318 273.413 190.939 273.134 190.659C272.854 190.38 272.475 190.223 272.08 190.222Z" fill="#B8B8B8"/>
<path d="M298.884 103.208H286.124C285.729 103.208 285.35 103.365 285.07 103.645C284.791 103.924 284.634 104.303 284.634 104.698V117.464C284.634 117.659 284.673 117.853 284.748 118.033C284.823 118.213 284.933 118.377 285.071 118.515C285.209 118.653 285.374 118.762 285.554 118.837C285.735 118.911 285.929 118.949 286.124 118.948H298.884C299.278 118.949 299.656 118.792 299.936 118.514C300.215 118.236 300.373 117.858 300.374 117.464V104.698C300.373 104.303 300.216 103.925 299.936 103.646C299.657 103.366 299.279 103.209 298.884 103.208Z" fill="#5FE36A"/>
<path d="M298.884 124.961H286.124C285.729 124.962 285.35 125.119 285.07 125.398C284.791 125.678 284.634 126.057 284.634 126.452V139.217C284.634 139.413 284.673 139.606 284.748 139.787C284.823 139.967 284.933 140.131 285.071 140.269C285.209 140.407 285.374 140.516 285.554 140.59C285.735 140.665 285.929 140.703 286.124 140.702H298.884C299.278 140.702 299.656 140.546 299.936 140.268C300.215 139.989 300.373 139.612 300.374 139.217V126.452C300.373 126.057 300.216 125.678 299.936 125.399C299.657 125.12 299.279 124.963 298.884 124.961Z" fill="#5FE36A"/>
<path d="M298.884 146.715H286.124C285.729 146.715 285.35 146.872 285.07 147.152C284.791 147.431 284.634 147.81 284.634 148.205V160.965C284.633 161.161 284.672 161.355 284.746 161.536C284.821 161.717 284.931 161.882 285.069 162.02C285.208 162.158 285.372 162.268 285.553 162.343C285.734 162.418 285.928 162.456 286.124 162.456H298.884C299.279 162.455 299.658 162.298 299.937 162.019C300.217 161.739 300.374 161.361 300.374 160.965V148.205C300.373 147.811 300.216 147.432 299.936 147.153C299.657 146.874 299.279 146.716 298.884 146.715Z" fill="#B8B8B8"/>
<path d="M298.884 168.469H286.124C285.729 168.469 285.35 168.626 285.07 168.905C284.791 169.185 284.634 169.564 284.634 169.959V182.719C284.633 182.915 284.672 183.109 284.746 183.29C284.821 183.471 284.931 183.635 285.069 183.774C285.208 183.912 285.372 184.022 285.553 184.097C285.734 184.171 285.928 184.21 286.124 184.209H298.884C299.279 184.209 299.658 184.052 299.937 183.773C300.217 183.493 300.374 183.114 300.374 182.719V169.959C300.373 169.564 300.216 169.186 299.936 168.906C299.657 168.627 299.279 168.47 298.884 168.469Z" fill="#5FE36A"/>
<path d="M298.884 190.222H286.124C285.928 190.222 285.734 190.26 285.553 190.335C285.372 190.41 285.208 190.52 285.069 190.658C284.931 190.796 284.821 190.961 284.746 191.142C284.672 191.323 284.633 191.517 284.634 191.713V204.473C284.633 204.668 284.672 204.862 284.746 205.043C284.821 205.224 284.931 205.389 285.069 205.527C285.208 205.666 285.372 205.776 285.553 205.85C285.734 205.925 285.928 205.963 286.124 205.963H298.884C299.279 205.963 299.658 205.806 299.937 205.526C300.217 205.247 300.374 204.868 300.374 204.473V191.713C300.374 191.318 300.217 190.939 299.937 190.659C299.658 190.38 299.279 190.223 298.884 190.222Z" fill="#5FE36A"/>
<path d="M325.687 103.208H312.928C312.532 103.208 312.153 103.365 311.874 103.645C311.595 103.924 311.437 104.303 311.437 104.698V117.464C311.437 117.659 311.476 117.853 311.551 118.033C311.626 118.213 311.736 118.377 311.875 118.515C312.013 118.653 312.177 118.762 312.358 118.837C312.539 118.911 312.732 118.949 312.928 118.948H325.687C326.082 118.949 326.46 118.792 326.739 118.514C327.019 118.236 327.177 117.858 327.178 117.464V104.698C327.177 104.303 327.019 103.925 326.74 103.646C326.461 103.366 326.082 103.209 325.687 103.208Z" fill="#5FE36A"/>
<path d="M325.687 124.961H312.928C312.532 124.962 312.153 125.119 311.874 125.398C311.594 125.678 311.437 126.057 311.437 126.452V139.217C311.437 139.413 311.476 139.606 311.551 139.787C311.626 139.967 311.736 140.131 311.875 140.269C312.013 140.407 312.177 140.516 312.358 140.59C312.539 140.665 312.732 140.703 312.928 140.702H325.687C326.082 140.702 326.46 140.546 326.739 140.268C327.019 139.989 327.177 139.612 327.178 139.217V126.452C327.177 126.057 327.019 125.678 326.74 125.399C326.461 125.12 326.082 124.963 325.687 124.961Z" fill="white"/>
<path d="M325.687 146.715H312.928C312.532 146.715 312.153 146.872 311.874 147.152C311.595 147.431 311.437 147.81 311.437 148.205V160.965C311.437 161.161 311.475 161.355 311.55 161.536C311.625 161.717 311.734 161.882 311.873 162.02C312.011 162.158 312.176 162.268 312.357 162.343C312.538 162.418 312.732 162.456 312.928 162.456H325.687C326.083 162.455 326.462 162.298 326.741 162.019C327.021 161.739 327.178 161.361 327.178 160.965V148.205C327.177 147.811 327.019 147.432 326.74 147.153C326.461 146.874 326.082 146.716 325.687 146.715Z" fill="white"/>
<path d="M325.687 168.469H312.928C312.532 168.469 312.153 168.626 311.874 168.905C311.595 169.185 311.437 169.564 311.437 169.959V182.719C311.437 182.915 311.475 183.109 311.55 183.29C311.625 183.471 311.734 183.635 311.873 183.774C312.011 183.912 312.176 184.022 312.357 184.097C312.538 184.171 312.732 184.21 312.928 184.209H325.687C326.083 184.209 326.462 184.052 326.741 183.773C327.021 183.493 327.178 183.114 327.178 182.719V169.959C327.177 169.564 327.019 169.186 326.74 168.906C326.461 168.627 326.082 168.47 325.687 168.469Z" fill="#B8B8B8"/>
<path d="M325.687 190.222H312.928C312.732 190.222 312.538 190.26 312.357 190.335C312.176 190.41 312.011 190.52 311.873 190.658C311.734 190.796 311.625 190.961 311.55 191.142C311.475 191.323 311.437 191.517 311.437 191.713V204.473C311.437 204.668 311.475 204.862 311.55 205.043C311.625 205.224 311.734 205.389 311.873 205.527C312.011 205.666 312.176 205.776 312.357 205.85C312.538 205.925 312.732 205.963 312.928 205.963H325.687C326.083 205.963 326.462 205.806 326.741 205.526C327.021 205.247 327.178 204.868 327.178 204.473V191.713C327.178 191.318 327.021 190.939 326.741 190.659C326.462 190.38 326.083 190.223 325.687 190.222Z" fill="#5FE36A"/>
<path d="M352.491 103.208H339.726C339.331 103.209 338.954 103.367 338.675 103.646C338.397 103.926 338.241 104.304 338.241 104.698V117.464C338.241 117.857 338.398 118.235 338.676 118.513C338.954 118.792 339.332 118.948 339.726 118.948H352.491C352.886 118.949 353.264 118.792 353.543 118.514C353.823 118.236 353.98 117.858 353.982 117.464V104.698C353.98 104.303 353.823 103.925 353.544 103.646C353.265 103.366 352.886 103.209 352.491 103.208Z" fill="white"/>
<path d="M352.491 124.961H339.726C339.331 124.963 338.954 125.12 338.675 125.4C338.397 125.679 338.241 126.057 338.241 126.452V139.217C338.241 139.611 338.398 139.989 338.676 140.267C338.954 140.545 339.332 140.702 339.726 140.702H352.491C352.886 140.702 353.264 140.546 353.543 140.268C353.823 139.989 353.98 139.612 353.982 139.217V126.452C353.98 126.057 353.823 125.678 353.544 125.399C353.265 125.12 352.886 124.963 352.491 124.961Z" fill="white"/>
<path d="M352.491 146.715H339.726C339.331 146.716 338.954 146.874 338.675 147.153C338.397 147.433 338.241 147.811 338.241 148.205V160.965C338.24 161.161 338.278 161.354 338.353 161.535C338.427 161.716 338.536 161.88 338.674 162.018C338.812 162.157 338.976 162.267 339.156 162.342C339.337 162.417 339.53 162.455 339.726 162.456H352.491C352.886 162.455 353.265 162.298 353.545 162.019C353.824 161.739 353.981 161.361 353.982 160.965V148.205C353.98 147.811 353.823 147.432 353.544 147.153C353.265 146.874 352.886 146.716 352.491 146.715Z" fill="white"/>
<path d="M352.491 168.469H339.726C339.331 168.47 338.954 168.628 338.675 168.907C338.397 169.186 338.241 169.565 338.241 169.959V182.719C338.24 182.914 338.278 183.108 338.353 183.289C338.427 183.469 338.536 183.634 338.674 183.772C338.812 183.91 338.976 184.02 339.156 184.095C339.337 184.17 339.53 184.209 339.726 184.209H352.491C352.886 184.209 353.265 184.052 353.545 183.773C353.824 183.493 353.981 183.114 353.982 182.719V169.959C353.98 169.564 353.823 169.186 353.544 168.906C353.265 168.627 352.886 168.47 352.491 168.469Z" fill="#5FE36A"/>
<path d="M352.491 190.222H339.726C339.53 190.223 339.337 190.261 339.156 190.336C338.976 190.411 338.812 190.521 338.674 190.66C338.536 190.798 338.427 190.962 338.353 191.143C338.278 191.324 338.24 191.517 338.241 191.713V204.473C338.24 204.668 338.278 204.862 338.353 205.042C338.427 205.223 338.536 205.387 338.674 205.526C338.812 205.664 338.976 205.774 339.156 205.849C339.337 205.924 339.53 205.963 339.726 205.963H352.491C352.886 205.963 353.265 205.806 353.545 205.526C353.824 205.247 353.981 204.868 353.982 204.473V191.713C353.981 191.318 353.824 190.939 353.545 190.659C353.265 190.38 352.886 190.223 352.491 190.222Z" fill="#B8B8B8"/>
<path d="M379.295 103.208H366.529C366.135 103.209 365.757 103.367 365.479 103.646C365.201 103.926 365.044 104.304 365.045 104.698V117.464C365.045 117.857 365.201 118.235 365.479 118.513C365.758 118.792 366.135 118.948 366.529 118.948H379.295C379.689 118.948 380.067 118.792 380.347 118.514C380.626 118.236 380.784 117.858 380.785 117.464V104.698C380.784 104.303 380.627 103.925 380.347 103.646C380.068 103.366 379.69 103.209 379.295 103.208Z" fill="white"/>
<path d="M379.295 124.961H366.529C366.135 124.963 365.757 125.12 365.479 125.4C365.201 125.679 365.044 126.057 365.045 126.452V139.217C365.045 139.611 365.201 139.989 365.479 140.267C365.758 140.545 366.135 140.702 366.529 140.702H379.295C379.689 140.702 380.067 140.546 380.347 140.268C380.626 139.989 380.784 139.612 380.785 139.217V126.452C380.784 126.057 380.627 125.678 380.347 125.399C380.068 125.12 379.69 124.963 379.295 124.961Z" fill="white"/>
<path d="M379.295 146.715H366.529C366.135 146.716 365.757 146.874 365.479 147.153C365.201 147.433 365.044 147.811 365.045 148.205V160.965C365.044 161.161 365.082 161.354 365.156 161.535C365.231 161.716 365.34 161.88 365.478 162.018C365.616 162.157 365.78 162.267 365.96 162.342C366.14 162.417 366.334 162.455 366.529 162.456H379.295C379.69 162.455 380.069 162.298 380.348 162.019C380.628 161.739 380.785 161.361 380.785 160.965V148.205C380.784 147.811 380.627 147.432 380.347 147.153C380.068 146.874 379.69 146.716 379.295 146.715Z" fill="#5FE36A"/>
<path d="M379.295 168.469H366.529C366.135 168.47 365.757 168.628 365.479 168.907C365.201 169.186 365.044 169.565 365.045 169.959V182.719C365.044 182.914 365.082 183.108 365.156 183.289C365.231 183.469 365.34 183.634 365.478 183.772C365.616 183.91 365.78 184.02 365.96 184.095C366.14 184.17 366.334 184.209 366.529 184.209H379.295C379.69 184.209 380.069 184.052 380.348 183.773C380.628 183.493 380.785 183.114 380.785 182.719V169.959C380.784 169.564 380.627 169.186 380.347 168.906C380.068 168.627 379.69 168.47 379.295 168.469Z" fill="#B8B8B8"/>
<path d="M379.295 190.222H366.529C366.334 190.223 366.14 190.261 365.96 190.336C365.78 190.411 365.616 190.521 365.478 190.66C365.34 190.798 365.231 190.962 365.156 191.143C365.082 191.324 365.044 191.517 365.045 191.713V204.473C365.044 204.668 365.082 204.862 365.156 205.042C365.231 205.223 365.34 205.387 365.478 205.526C365.616 205.664 365.78 205.774 365.96 205.849C366.14 205.924 366.334 205.963 366.529 205.963H379.295C379.69 205.963 380.069 205.806 380.348 205.526C380.628 205.247 380.785 204.868 380.785 204.473V191.713C380.785 191.318 380.628 190.939 380.348 190.659C380.069 190.38 379.69 190.223 379.295 190.222Z" fill="white"/>
<path d="M406.099 103.208H393.333C392.939 103.209 392.561 103.367 392.283 103.646C392.004 103.926 391.848 104.304 391.848 104.698V117.464C391.848 117.857 392.005 118.235 392.283 118.513C392.562 118.792 392.939 118.948 393.333 118.948H406.099C406.493 118.948 406.871 118.792 407.151 118.514C407.43 118.236 407.588 117.858 407.589 117.464V104.698C407.588 104.303 407.43 103.925 407.151 103.646C406.872 103.366 406.494 103.209 406.099 103.208Z" fill="#5FE36A"/>
<path d="M406.099 124.961H393.333C392.939 124.963 392.561 125.12 392.283 125.4C392.004 125.679 391.848 126.057 391.848 126.452V139.217C391.848 139.611 392.005 139.989 392.283 140.267C392.562 140.545 392.939 140.702 393.333 140.702H406.099C406.493 140.702 406.871 140.546 407.151 140.268C407.43 139.989 407.588 139.612 407.589 139.217V126.452C407.588 126.057 407.43 125.678 407.151 125.399C406.872 125.12 406.494 124.963 406.099 124.961Z" fill="#5FE36A"/>
<path d="M406.099 146.715H393.333C392.939 146.716 392.561 146.874 392.283 147.153C392.004 147.433 391.848 147.811 391.848 148.205V160.965C391.848 161.161 391.886 161.354 391.96 161.535C392.035 161.716 392.144 161.88 392.282 162.018C392.42 162.157 392.583 162.267 392.764 162.342C392.944 162.417 393.138 162.455 393.333 162.456H406.099C406.494 162.455 406.873 162.298 407.152 162.019C407.432 161.739 407.589 161.361 407.589 160.965V148.205C407.588 147.811 407.43 147.432 407.151 147.153C406.872 146.874 406.494 146.716 406.099 146.715Z" fill="#B8B8B8"/>
<path d="M406.099 168.469H393.333C392.939 168.47 392.561 168.628 392.283 168.907C392.004 169.186 391.848 169.565 391.848 169.959V182.719C391.848 182.914 391.886 183.108 391.96 183.289C392.035 183.469 392.144 183.634 392.282 183.772C392.42 183.91 392.583 184.02 392.764 184.095C392.944 184.17 393.138 184.209 393.333 184.209H406.099C406.494 184.209 406.873 184.052 407.152 183.773C407.432 183.493 407.589 183.114 407.589 182.719V169.959C407.588 169.564 407.43 169.186 407.151 168.906C406.872 168.627 406.494 168.47 406.099 168.469Z" fill="white"/>
<path d="M406.099 190.222H393.333C393.138 190.223 392.944 190.261 392.764 190.336C392.583 190.411 392.42 190.521 392.282 190.66C392.144 190.798 392.035 190.962 391.96 191.143C391.886 191.324 391.848 191.517 391.848 191.713V204.473C391.848 204.668 391.886 204.862 391.96 205.042C392.035 205.223 392.144 205.387 392.282 205.526C392.42 205.664 392.583 205.774 392.764 205.849C392.944 205.924 393.138 205.963 393.333 205.963H406.099C406.494 205.963 406.873 205.806 407.152 205.526C407.432 205.247 407.589 204.868 407.589 204.473V191.713C407.589 191.318 407.432 190.939 407.152 190.659C406.873 190.38 406.494 190.223 406.099 190.222Z" fill="#5FE36A"/>
<path d="M432.902 103.208H420.137C419.742 103.209 419.365 103.367 419.086 103.646C418.808 103.926 418.652 104.304 418.652 104.698V117.464C418.652 117.857 418.809 118.235 419.087 118.513C419.365 118.792 419.743 118.948 420.137 118.948H432.902C433.297 118.948 433.675 118.792 433.954 118.514C434.234 118.236 434.391 117.858 434.393 117.464V104.698C434.392 104.303 434.234 103.925 433.955 103.646C433.676 103.366 433.297 103.209 432.902 103.208Z" fill="#5FE36A"/>
<path d="M432.902 124.961H420.137C419.742 124.963 419.365 125.12 419.086 125.4C418.808 125.679 418.652 126.057 418.652 126.452V139.217C418.652 139.611 418.809 139.989 419.087 140.267C419.365 140.545 419.743 140.702 420.137 140.702H432.902C433.297 140.702 433.675 140.546 433.954 140.268C434.234 139.989 434.391 139.612 434.393 139.217V126.452C434.392 126.057 434.234 125.678 433.955 125.399C433.676 125.12 433.297 124.963 432.902 124.961Z" fill="#5FE36A"/>
<path d="M432.902 146.715H420.137C419.742 146.716 419.365 146.874 419.086 147.153C418.808 147.433 418.652 147.811 418.652 148.205V160.965C418.652 161.161 418.69 161.354 418.764 161.535C418.838 161.716 418.947 161.88 419.085 162.018C419.223 162.157 419.387 162.267 419.568 162.342C419.748 162.417 419.941 162.455 420.137 162.456H432.902C433.298 162.455 433.676 162.298 433.956 162.019C434.235 161.739 434.393 161.361 434.393 160.965V148.205C434.392 147.811 434.234 147.432 433.955 147.153C433.676 146.874 433.297 146.716 432.902 146.715Z" fill="#B8B8B8"/>
<path d="M432.902 168.469H420.137C419.742 168.47 419.365 168.628 419.086 168.907C418.808 169.186 418.652 169.565 418.652 169.959V182.719C418.652 182.914 418.69 183.108 418.764 183.289C418.838 183.469 418.947 183.634 419.085 183.772C419.223 183.91 419.387 184.02 419.568 184.095C419.748 184.17 419.941 184.209 420.137 184.209H432.902C433.298 184.209 433.677 184.052 433.956 183.773C434.235 183.493 434.393 183.114 434.393 182.719V169.959C434.392 169.564 434.234 169.186 433.955 168.906C433.676 168.627 433.297 168.47 432.902 168.469Z" fill="#5FE36A"/>
<path d="M432.902 190.222H420.137C419.941 190.223 419.748 190.261 419.568 190.336C419.387 190.411 419.223 190.521 419.085 190.66C418.947 190.798 418.838 190.962 418.764 191.143C418.69 191.324 418.652 191.517 418.652 191.713V204.473C418.652 204.668 418.69 204.862 418.764 205.042C418.838 205.223 418.947 205.387 419.085 205.526C419.223 205.664 419.387 205.774 419.567 205.849C419.748 205.924 419.941 205.963 420.137 205.963H432.902C433.298 205.963 433.677 205.806 433.956 205.526C434.235 205.247 434.393 204.868 434.393 204.473V191.713C434.393 191.318 434.235 190.939 433.956 190.659C433.677 190.38 433.298 190.223 432.902 190.222Z" fill="#5FE36A"/>
<path d="M459.706 103.208H446.94C446.546 103.209 446.168 103.367 445.89 103.646C445.612 103.926 445.456 104.304 445.456 104.698V117.464C445.456 117.857 445.612 118.235 445.891 118.513C446.169 118.792 446.547 118.948 446.94 118.948H459.706C460.1 118.948 460.479 118.792 460.758 118.514C461.037 118.236 461.195 117.858 461.196 117.464V104.698C461.195 104.303 461.038 103.925 460.758 103.646C460.479 103.366 460.101 103.209 459.706 103.208Z" fill="#B8B8B8"/>
<path d="M459.706 124.961H446.94C446.546 124.963 446.168 125.12 445.89 125.4C445.612 125.679 445.456 126.057 445.456 126.452V139.217C445.456 139.611 445.612 139.989 445.891 140.267C446.169 140.545 446.547 140.702 446.94 140.702H459.706C460.1 140.702 460.479 140.546 460.758 140.268C461.037 139.989 461.195 139.612 461.196 139.217V126.452C461.195 126.057 461.038 125.678 460.758 125.399C460.479 125.12 460.101 124.963 459.706 124.961Z" fill="#5FE36A"/>
<path d="M459.706 146.715H446.94C446.546 146.716 446.168 146.874 445.89 147.153C445.612 147.433 445.456 147.811 445.456 148.205V160.965C445.455 161.161 445.493 161.354 445.567 161.535C445.642 161.716 445.751 161.88 445.889 162.018C446.027 162.157 446.191 162.267 446.371 162.342C446.552 162.417 446.745 162.455 446.94 162.456H459.706C460.101 162.455 460.48 162.298 460.76 162.019C461.039 161.739 461.196 161.361 461.196 160.965V148.205C461.195 147.811 461.038 147.432 460.758 147.153C460.479 146.874 460.101 146.716 459.706 146.715Z" fill="#5FE36A"/>
<path d="M459.706 168.469H446.94C446.546 168.47 446.168 168.628 445.89 168.907C445.612 169.186 445.456 169.565 445.456 169.959V182.719C445.455 182.914 445.493 183.108 445.567 183.289C445.642 183.469 445.751 183.634 445.889 183.772C446.027 183.91 446.191 184.02 446.371 184.095C446.551 184.17 446.745 184.209 446.94 184.209H459.706C460.101 184.209 460.48 184.052 460.76 183.773C461.039 183.493 461.196 183.114 461.196 182.719V169.959C461.195 169.564 461.038 169.186 460.758 168.906C460.479 168.627 460.101 168.47 459.706 168.469Z" fill="#5FE36A"/>
<path d="M459.706 190.222H446.94C446.745 190.223 446.551 190.261 446.371 190.336C446.191 190.411 446.027 190.521 445.889 190.66C445.751 190.798 445.642 190.962 445.567 191.143C445.493 191.324 445.455 191.517 445.456 191.713V204.473C445.455 204.668 445.493 204.862 445.567 205.042C445.642 205.223 445.751 205.387 445.889 205.526C446.027 205.664 446.191 205.774 446.371 205.849C446.551 205.924 446.745 205.963 446.94 205.963H459.706C460.101 205.963 460.48 205.806 460.76 205.526C461.039 205.247 461.196 204.868 461.196 204.473V191.713C461.196 191.318 461.039 190.939 460.76 190.659C460.48 190.38 460.101 190.223 459.706 190.222Z" fill="#B8B8B8"/>
<path d="M486.51 103.208H473.744C473.35 103.209 472.972 103.367 472.694 103.646C472.415 103.926 472.259 104.304 472.259 104.698V117.464C472.259 117.857 472.416 118.235 472.694 118.513C472.973 118.792 473.35 118.948 473.744 118.948H486.51C486.904 118.948 487.282 118.792 487.562 118.514C487.841 118.236 487.999 117.858 488 117.464V104.698C487.999 104.303 487.841 103.925 487.562 103.646C487.283 103.366 486.905 103.209 486.51 103.208Z" fill="#B8B8B8"/>
<path d="M486.51 124.961H473.744C473.35 124.963 472.972 125.12 472.694 125.4C472.415 125.679 472.259 126.057 472.259 126.452V139.217C472.259 139.611 472.416 139.989 472.694 140.267C472.973 140.545 473.35 140.702 473.744 140.702H486.51C486.904 140.702 487.282 140.546 487.562 140.268C487.841 139.989 487.999 139.612 488 139.217V126.452C487.999 126.057 487.841 125.678 487.562 125.399C487.283 125.12 486.905 124.963 486.51 124.961Z" fill="#B8B8B8"/>
<path d="M486.51 146.715H473.744C473.35 146.716 472.972 146.874 472.694 147.153C472.415 147.433 472.259 147.811 472.259 148.205V160.965C472.259 161.161 472.297 161.354 472.371 161.535C472.446 161.716 472.555 161.88 472.693 162.018C472.831 162.157 472.994 162.267 473.175 162.342C473.355 162.417 473.549 162.455 473.744 162.456H486.51C486.905 162.455 487.284 162.298 487.563 162.019C487.843 161.739 488 161.361 488 160.965V148.205C487.999 147.811 487.841 147.432 487.562 147.153C487.283 146.874 486.905 146.716 486.51 146.715Z" fill="#5FE36A"/>
<path d="M486.51 168.469H473.744C473.35 168.47 472.972 168.628 472.694 168.907C472.416 169.186 472.259 169.565 472.259 169.959V182.719C472.259 182.914 472.297 183.108 472.371 183.289C472.446 183.469 472.555 183.634 472.693 183.772C472.831 183.91 472.994 184.02 473.175 184.095C473.355 184.17 473.549 184.209 473.744 184.209H486.51C486.905 184.209 487.284 184.052 487.563 183.773C487.843 183.493 488 183.114 488 182.719V169.959C487.999 169.564 487.841 169.186 487.562 168.906C487.283 168.627 486.905 168.47 486.51 168.469Z" fill="#B8B8B8"/>
<path d="M486.51 190.222H473.744C473.549 190.223 473.355 190.261 473.175 190.336C472.994 190.411 472.831 190.521 472.693 190.66C472.555 190.798 472.446 190.962 472.371 191.143C472.297 191.324 472.259 191.517 472.259 191.713V204.473C472.259 204.668 472.297 204.862 472.371 205.042C472.446 205.223 472.555 205.387 472.693 205.526C472.831 205.664 472.994 205.774 473.175 205.849C473.355 205.924 473.549 205.963 473.744 205.963H486.51C486.905 205.963 487.284 205.806 487.563 205.526C487.843 205.247 488 204.868 488 204.473V191.713C488 191.318 487.843 190.939 487.563 190.659C487.284 190.38 486.905 190.223 486.51 190.222Z" fill="#B8B8B8"/>
<path d="M193.111 378.353H192.756L193.06 378.313L193.111 378.353Z" fill="#2F2E41"/>
<path d="M162.57 140.47C184.2 140.47 201.734 122.936 201.734 101.307C201.734 79.6772 184.2 62.1432 162.57 62.1432C140.941 62.1432 123.407 79.6772 123.407 101.307C123.407 122.936 140.941 140.47 162.57 140.47Z" fill="#FFB6B6"/>
<path d="M196.867 72.5926C196.867 72.5926 207.11 53.0109 184.575 51.2308C184.575 51.2308 165.363 33.8036 145.782 48.0448C145.782 48.0448 135.101 48.0448 129.26 60.1315C129.26 60.1315 120.86 56.9456 119.014 65.472C119.014 65.472 112.867 83.2735 119.014 99.2949C125.161 115.316 127.202 117.096 127.202 117.096C127.202 117.096 117.102 83.5068 141.687 81.7266C166.273 79.9464 193.785 64.5819 195.834 84.1636C197.883 103.745 200.967 108.57 200.967 108.57C200.967 108.57 220.427 80.6033 196.867 72.5926Z" fill="#2B2B2B"/>
<path d="M263.877 197.823L263.751 198.488L262.335 205.963L252.55 257.667L251.972 260.711L250.756 267.148L249.094 275.93L245.408 295.391L244.354 300.968L243.958 303.06L243.82 303.794L242.726 309.566L242.393 311.309L239.722 331.102L237.389 348.35L245.196 356.158L240.542 360.812L237.486 378.313L237.492 378.353H112.8C107.755 375.085 102.784 371.717 97.8847 368.247L98.9107 360.566C98.9107 360.566 102.442 346.849 100.957 345.209C99.4782 343.57 96.2337 340.641 96.2337 340.641L100.321 331.102L100.888 329.778L99.9368 310.042L99.9139 309.566L99.5986 303.06L99.5585 302.223L99.4954 300.968L98.2859 275.93L98.263 275.517L97.8962 267.928L97.5522 260.711L97.4032 257.667L95.93 227.212L94.9326 206.53L94.0613 188.526L97.5637 187.339L135.024 174.608L150.541 154.436L182.836 154.677L198.645 154.797L225.025 179.262L231.026 182.128L231.072 182.151L235.377 184.209L246.291 189.42L257.83 194.934L263.751 197.76L263.877 197.823Z" fill="#CACACA"/>
<path d="M154.714 319.599C152.347 320.515 149.809 320.902 147.276 320.732C144.744 320.561 142.28 319.838 140.058 318.612C137.835 317.386 135.909 315.688 134.414 313.637C132.919 311.586 131.892 309.232 131.405 306.741L70.3232 298.075L91.5569 274.056L146.306 285.968C150.544 285.427 154.834 286.46 158.362 288.871C161.89 291.282 164.411 294.903 165.448 299.049C166.484 303.194 165.964 307.576 163.986 311.363C162.007 315.151 158.708 318.081 154.714 319.599V319.599Z" fill="#FFB6B6"/>
<path d="M127.48 275.93C126.348 274.496 124.747 273.507 122.957 273.138L97.8961 267.928L95.3223 267.395C93.8266 267.083 92.4136 266.458 91.1759 265.562C89.9382 264.666 88.9036 263.519 88.1399 262.196C87.3476 260.806 86.8683 259.261 86.7355 257.667C86.616 256.218 86.7895 254.76 87.2456 253.38L95.9299 227.212L101.565 210.233C102.248 208.186 102.651 206.055 102.763 203.899C103.077 197.934 101.231 192.055 97.5635 187.339C94.3394 183.194 89.8675 180.196 84.8086 178.788C79.7496 177.38 74.372 177.637 69.4701 179.52C69.3268 179.572 69.1778 179.629 69.0345 179.687C65.5191 181.09 62.3783 183.292 59.8604 186.119C57.3424 188.945 55.5163 192.318 54.5263 195.972L48.4043 218.241L35.7763 264.15C34.5122 268.75 34.2568 273.569 35.0277 278.276C35.7985 282.984 37.5773 287.469 40.2424 291.425C42.9075 295.382 46.396 298.715 50.469 301.198C54.542 303.681 59.1035 305.255 63.8411 305.812L99.9367 310.042L116.64 312.003C118.572 312.235 120.52 311.731 122.096 310.591C123.673 309.451 124.762 307.759 125.147 305.852C125.174 305.748 125.195 305.643 125.21 305.537L125.611 303.06L129.01 282.207L129.045 281.995C129.222 280.93 129.174 279.841 128.905 278.797C128.635 277.752 128.15 276.776 127.48 275.93Z" fill="#CACACA"/>
<path d="M193.62 320.267C196.093 320.841 198.661 320.866 201.144 320.34C203.627 319.814 205.964 318.75 207.991 317.223C210.018 315.696 211.686 313.743 212.877 311.502C214.068 309.261 214.753 306.786 214.884 304.251L274.133 287.058L249.724 266.274L197.202 285.787C192.93 285.849 188.829 287.477 185.676 290.361C182.523 293.245 180.538 297.186 180.096 301.436C179.655 305.686 180.788 309.951 183.28 313.421C185.773 316.892 189.452 319.328 193.62 320.267V320.267Z" fill="#FFB6B6"/>
<path d="M303.55 248.599L275.37 183.745C273.065 178.421 268.949 174.085 263.751 171.507C262.145 170.716 260.457 170.101 258.718 169.672C258.449 169.604 258.179 169.541 257.91 169.489C254.223 168.684 250.399 168.755 246.744 169.695C243.403 170.554 240.28 172.107 237.58 174.253C234.88 176.399 232.662 179.09 231.072 182.151C231.055 182.177 231.039 182.204 231.026 182.232C229.25 185.668 228.305 189.473 228.268 193.341C228.232 197.209 229.104 201.032 230.814 204.501L231.164 205.201L251.077 245.194C251.757 246.562 252.14 248.058 252.202 249.584C252.263 251.11 252.001 252.631 251.432 254.049C250.864 255.467 250.002 256.748 248.904 257.809C247.805 258.871 246.495 259.687 245.059 260.207L243.66 260.711L218.507 269.797C216.62 270.47 215.067 271.85 214.177 273.645C213.286 275.44 213.127 277.511 213.732 279.421L213.795 279.622L220.846 302.183C220.88 302.287 220.914 302.39 220.955 302.493C221.017 302.688 221.093 302.877 221.184 303.06C221.933 304.741 223.258 306.099 224.919 306.89C226.58 307.681 228.469 307.854 230.246 307.377L243.82 303.794L246.589 303.06L281.641 293.803C286.253 292.584 290.548 290.383 294.23 287.351C297.913 284.318 300.897 280.525 302.977 276.232C305.058 271.94 306.186 267.248 306.285 262.478C306.384 257.709 305.451 252.974 303.55 248.599L303.55 248.599Z" fill="#CACACA"/>
<path d="M26.1921 303.06C34.3149 312.968 43.0751 322.335 52.4169 331.102H311.495C313.991 331.106 316.383 332.1 318.148 333.865C319.912 335.631 320.904 338.024 320.907 340.52L321.279 406.171C337.217 398.848 352.143 389.498 365.687 378.353C369.447 375.263 373.091 372.04 376.618 368.682C378.928 366.493 381.183 364.25 383.382 361.953C399.87 344.776 413.221 324.844 422.831 303.06H26.1921Z" fill="#3D3D3D"/>
<path d="M383.382 361.953C381.186 364.251 378.932 366.495 376.618 368.682H321.469V361.953H383.382Z" fill="white"/>
<path d="M263.361 146.715C263.089 146.212 262.686 145.792 262.194 145.5C261.703 145.207 261.142 145.053 260.57 145.053H72.6458C71.8033 145.055 70.9959 145.391 70.4007 145.987C69.8055 146.584 69.4708 147.392 69.4702 148.234V260.711H263.751V148.234C263.754 147.703 263.62 147.179 263.361 146.715Z" fill="#3D3D3D"/>
<path d="M69.3 257.666V271.546C69.3 272.121 69.4134 272.691 69.6336 273.222C69.8538 273.754 70.1765 274.237 70.5834 274.644C70.9902 275.051 71.4733 275.374 72.0049 275.594C72.5365 275.814 73.1062 275.927 73.6816 275.927H145.389V303.319H144.437C144.362 303.319 144.288 303.334 144.219 303.363C144.15 303.391 144.087 303.433 144.034 303.486C143.981 303.539 143.94 303.602 143.911 303.671C143.882 303.74 143.868 303.814 143.868 303.889V305.794C143.868 305.869 143.882 305.943 143.911 306.012C143.939 306.081 143.981 306.144 144.034 306.196C144.087 306.249 144.15 306.291 144.219 306.32C144.288 306.348 144.362 306.363 144.437 306.363H188.952C189.027 306.363 189.101 306.348 189.17 306.32C189.239 306.291 189.302 306.249 189.355 306.196C189.407 306.144 189.449 306.081 189.478 306.012C189.507 305.943 189.521 305.869 189.521 305.794V303.889C189.521 303.814 189.507 303.74 189.478 303.671C189.449 303.602 189.407 303.539 189.355 303.486C189.302 303.433 189.239 303.391 189.17 303.363C189.101 303.334 189.027 303.319 188.952 303.319H187.999V275.927H259.707C260.283 275.927 260.852 275.814 261.384 275.594C261.916 275.374 262.399 275.051 262.805 274.644C263.212 274.237 263.535 273.754 263.755 273.222C263.975 272.691 264.089 272.121 264.089 271.546V257.666H69.3Z" fill="#3D3D3D"/>
<path d="M164.341 217.829C174.252 217.829 182.286 209.794 182.286 199.883C182.286 189.972 174.252 181.938 164.341 181.938C154.43 181.938 146.395 189.972 146.395 199.883C146.395 209.794 154.43 217.829 164.341 217.829Z" fill="#5FE36A"/>
<path d="M210.064 99.1666H207.197C207.197 77.4989 185.753 63.3003 164.12 63.2888C160.973 63.2796 157.834 63.5849 154.748 64.2002C151.274 64.8938 147.669 65.725 144.126 66.8084C130.157 71.0903 117.202 79.3676 117.202 99.1666C117.199 103.012 117.688 106.841 118.658 110.562L115.884 111.284C114.855 107.327 114.335 103.255 114.336 99.1666C114.336 81.8668 121.438 69.984 133.705 62.899C140.154 59.1731 148.024 56.7713 157.041 55.602C160.793 55.1028 164.586 54.9875 168.362 55.258C193.24 57.0464 210.064 76.1232 210.064 99.1666Z" fill="#5FE36A"/>
<path d="M214.838 100.754L213.709 92.4083C213.431 90.3006 212.415 88.3594 210.843 86.9283C209.834 85.9954 208.625 85.3042 207.31 84.907C205.994 84.5097 204.605 84.4169 203.248 84.6355L201.454 84.8819C200.963 84.9466 200.49 85.108 200.062 85.357C199.634 85.6059 199.259 85.9374 198.96 86.3322C198.659 86.7256 198.438 87.1749 198.311 87.654C198.184 88.1332 198.154 88.6327 198.221 89.1238L200.829 108.35C200.936 109.133 201.288 109.863 201.833 110.436C202.378 111.009 203.09 111.396 203.867 111.542C204.097 111.588 204.332 111.612 204.566 111.611C204.735 111.611 204.904 111.6 205.071 111.577L207.077 111.307C208.3 111.145 209.477 110.734 210.536 110.1C211.595 109.467 212.513 108.623 213.233 107.622C213.388 107.404 213.537 107.18 213.675 106.951C214.749 105.075 215.159 102.892 214.838 100.754Z" fill="#5FE36A"/>
<path d="M200.296 85.2316C199.77 85.4873 199.312 85.8646 198.96 86.3322C198.659 86.7256 198.438 87.1749 198.311 87.654C198.184 88.1332 198.154 88.6327 198.221 89.1238L200.829 108.35C200.936 109.133 201.288 109.863 201.833 110.436C202.378 111.009 203.09 111.396 203.867 111.542L200.296 85.2316Z" fill="#DCE3F1"/>
<path d="M214.838 100.754L213.709 92.4083C213.431 90.3006 212.415 88.3594 210.843 86.9283L213.44 106.057C213.479 106.364 213.558 106.664 213.675 106.951C214.749 105.075 215.159 102.892 214.838 100.754V100.754Z" fill="#3F3D56"/>
<path d="M205.914 106.768C206.698 106.661 207.092 104.795 206.794 102.599C206.496 100.403 205.619 98.7092 204.835 98.8156C204.051 98.922 203.656 100.788 203.954 102.984C204.252 105.18 205.129 106.874 205.914 106.768Z" fill="#3D3D3D"/>
<path d="M204.194 96.4499C204.978 96.3435 205.372 94.4771 205.075 92.2811C204.777 90.0852 203.899 88.3913 203.115 88.4977C202.331 88.6041 201.937 90.4705 202.235 92.6664C202.532 94.8624 203.41 96.5563 204.194 96.4499Z" fill="#3D3D3D"/>
<path d="M215.085 100.462C215.869 100.356 216.264 98.4897 215.966 96.2937C215.668 94.0978 214.791 92.4038 214.006 92.5102C213.222 92.6166 212.828 94.483 213.126 96.679C213.424 98.8749 214.301 100.569 215.085 100.462Z" fill="#3F3D56"/>
<path d="M164.12 63.2888C160.973 63.2796 157.834 63.5849 154.748 64.2002C151.274 64.8938 147.669 65.725 144.126 66.8083C138.595 66.5389 134.525 65.1059 133.705 62.899C140.154 59.1731 148.024 56.7713 157.041 55.6019C160.793 55.1027 164.586 54.9875 168.362 55.258C168.762 55.4923 169.107 55.8085 169.376 56.1859C169.645 56.5633 169.83 56.9933 169.921 57.4477C170.19 59.4425 167.915 61.5634 164.12 63.2888Z" fill="#3D3D3D"/>
<path d="M127.526 119.057L123.112 100.709C122.955 100.047 122.605 99.4458 122.107 98.9818C121.61 98.5178 120.986 98.2111 120.315 98.1004C120.125 98.0709 119.933 98.0555 119.741 98.0545C119.471 98.0555 119.202 98.0882 118.939 98.152L117.231 98.5647C115.031 99.0966 113.133 100.479 111.952 102.409C110.771 104.339 110.404 106.659 110.931 108.86L112.909 117.091C113.36 119.029 114.436 120.765 115.97 122.032C116.218 122.233 116.479 122.419 116.749 122.588C117.71 123.191 118.782 123.594 119.901 123.775C121.021 123.956 122.165 123.911 123.267 123.643L124.969 123.23C125.419 123.125 125.843 122.928 126.213 122.651C126.764 122.25 127.182 121.694 127.416 121.054C127.65 120.414 127.688 119.719 127.526 119.057Z" fill="#5FE36A"/>
<path d="M118.273 115.643C119.042 115.458 119.246 113.561 118.727 111.407C118.209 109.252 117.165 107.656 116.395 107.841C115.626 108.026 115.422 109.923 115.941 112.077C116.459 114.232 117.503 115.828 118.273 115.643Z" fill="#3D3D3D"/>
<path d="M112.54 117.363C113.31 117.178 113.513 115.281 112.995 113.126C112.477 110.972 111.432 109.375 110.663 109.561C109.893 109.746 109.69 111.642 110.208 113.797C110.727 115.952 111.771 117.548 112.54 117.363Z" fill="#3F3D56"/>
<path d="M127.807 118.988L123.393 100.64C123.221 99.9235 122.841 99.2739 122.302 98.7722C121.763 98.2706 121.087 97.9392 120.361 97.8195L126.385 122.881C126.98 122.445 127.433 121.843 127.686 121.15C127.939 120.457 127.981 119.705 127.807 118.988V118.988Z" fill="#DCE3F1"/>
<path d="M111.928 105.225C111.807 104.715 111.578 104.237 111.258 103.821C110.637 105.428 110.523 107.186 110.931 108.86L112.909 117.091C113.36 119.029 114.436 120.765 115.97 122.032L111.928 105.225Z" fill="#3F3D56"/>
</g>
<defs>
<clipPath id="clip0_28_101">
<rect width="487.544" height="424.657" fill="white" transform="translate(0.455811)"/>
</clipPath>
</defs>
</svg>
