<svg width="250" height="250" viewBox="0 0 200 334" fill="none" xmlns="http://www.w3.org/2000/svg">
<g clip-path="url(#clip0_529_2)">
<path d="M50 334C77.6 334 100 309.061 100 278.333V222.667H50C22.4 222.667 0 247.605 0 278.333C0 309.061 22.4 334 50 334Z" fill="#0ACF83"/>
<path d="M0 167C0 136.272 22.4 111.333 50 111.333H100V222.667H50C22.4 222.667 0 197.728 0 167Z" fill="#A259FF"/>
<path d="M0 55.6667C0 24.9387 22.4 0 50 0H100V111.333H50C22.4 111.333 0 86.3947 0 55.6667Z" fill="#F24E1E"/>
<path d="M100 0H150C177.6 0 200 24.9387 200 55.6667C200 86.3947 177.6 111.333 150 111.333H100V0Z" fill="#FF7262"/>
<path d="M200 167C200 197.728 177.6 222.667 150 222.667C122.4 222.667 100 197.728 100 167C100 136.272 122.4 111.333 150 111.333C177.6 111.333 200 136.272 200 167Z" fill="#1ABCFE"/>
</g>
<defs>
<clipPath id="clip0_529_2">
<rect width="200" height="334" fill="white"/>
</clipPath>
</defs>
</svg>
