<svg width="200" height="200" viewBox="0 0 200 200" fill="none" xmlns="http://www.w3.org/2000/svg">
<g clip-path="url(#clip0_529_8)">
<path d="M196.228 91.0891L108.906 3.77192C103.88 -1.25698 95.7242 -1.25698 90.6922 3.77192L72.5594 21.9047L95.5617 44.9071C100.907 43.1008 107.037 44.3125 111.298 48.5735C115.579 52.8618 116.782 59.0438 114.932 64.4063L137.1 86.575C142.463 84.7274 148.652 85.9227 152.935 90.2133C158.922 96.1977 158.922 105.897 152.935 111.885C146.947 117.874 137.248 117.874 131.256 111.885C126.753 107.377 125.641 100.764 127.92 95.2165L107.247 74.543L107.245 128.947C108.743 129.688 110.112 130.667 111.298 131.845C117.284 137.83 117.284 147.53 111.298 153.523C105.309 159.509 95.6055 159.509 89.6258 153.523C83.6391 147.53 83.6391 137.831 89.6258 131.846C91.0605 130.411 92.7655 129.274 94.6422 128.502V73.5907C92.7627 72.8234 91.0568 71.686 89.6258 70.2461C85.0898 65.7165 83.9992 59.061 86.3234 53.4915L63.6484 30.8141L3.77344 90.6852C-1.25781 95.7188 -1.25781 103.876 3.77344 108.906L91.0969 196.224C96.1242 201.254 104.279 201.254 109.312 196.224L196.227 109.311C201.257 104.28 201.257 96.118 196.227 91.0891" fill="#DE4C36"/>
</g>
<defs>
<clipPath id="clip0_529_8">
<rect width="200" height="200" fill="white"/>
</clipPath>
</defs>
</svg>
