<svg width="256" height="250" viewBox="0 0 256 250" fill="none" xmlns="http://www.w3.org/2000/svg">
<path d="M125.001 0C55.9736 0 0 57.3804 0 128.165C0 184.791 35.8164 232.834 85.4834 249.78C91.7305 250.967 94.0244 247 94.0244 243.615C94.0244 240.559 93.9072 230.463 93.8545 219.754C59.0791 227.506 51.7412 204.632 51.7412 204.632C46.0547 189.818 37.8613 185.878 37.8613 185.878C26.5205 177.924 38.7168 178.088 38.7168 178.088C51.2686 178.991 57.8779 191.295 57.8779 191.295C69.0273 210.888 87.1211 205.223 94.2539 201.948C95.376 193.666 98.6152 188.01 102.19 184.81C74.4258 181.57 45.2393 170.58 45.2393 121.471C45.2393 107.478 50.1221 96.0448 58.1182 87.0693C56.8203 83.8412 52.542 70.8065 59.3291 53.152C59.3291 53.152 69.8262 49.7076 93.7139 66.2898C103.685 63.4501 114.378 62.0263 125.001 61.9773C135.624 62.0263 146.326 63.4491 156.315 66.2898C180.174 49.7086 190.656 53.153 190.656 53.153C197.46 70.8055 193.18 83.8422 191.882 87.0693C199.896 96.0448 204.746 107.478 204.746 121.471C204.746 170.697 175.504 181.536 147.669 184.709C152.152 188.686 156.147 196.486 156.147 208.444C156.147 225.591 156.003 239.393 156.003 243.615C156.003 247.026 158.253 251.022 164.589 249.762C214.229 232.798 250 184.773 250 128.166C250 57.3804 194.034 0 125.001 0ZM46.8174 182.573C46.542 183.21 45.5645 183.402 44.6748 182.964C43.7676 182.546 43.2588 181.678 43.5518 181.04C43.8213 180.384 44.8008 180.2 45.7051 180.64C46.6133 181.059 47.1309 181.935 46.8174 182.573ZM52.9658 188.199C52.3701 188.765 51.2041 188.502 50.4131 187.607C49.5957 186.714 49.4424 185.518 50.0469 184.944C50.6621 184.377 51.792 184.642 52.6113 185.535C53.4297 186.439 53.5879 187.626 52.9658 188.199ZM57.1846 195.396C56.418 195.942 55.166 195.43 54.3916 194.29C53.626 193.151 53.626 191.784 54.4082 191.237C55.1846 190.689 56.418 191.181 57.2021 192.313C57.9658 193.471 57.9658 194.838 57.1836 195.397L57.1846 195.396ZM64.3174 203.732C63.6328 204.507 62.1729 204.298 61.1045 203.241C60.0117 202.208 59.708 200.742 60.3955 199.967C61.0889 199.19 62.5566 199.408 63.6328 200.457C64.7168 201.489 65.0488 202.966 64.3174 203.732ZM73.5381 206.545C73.2354 207.549 71.8291 208.006 70.4141 207.579C69 207.14 68.0752 205.964 68.3604 204.95C68.6543 203.939 70.0664 203.464 71.4922 203.921C72.9043 204.357 73.832 205.525 73.5381 206.546V206.545ZM84.0303 207.74C84.0654 208.796 82.8652 209.672 81.3789 209.692C79.8848 209.726 78.6748 208.871 78.6582 207.83C78.6582 206.763 79.832 205.895 81.3271 205.869C82.8135 205.839 84.0303 206.688 84.0303 207.74V207.74ZM94.3379 207.334C94.5156 208.365 93.4834 209.425 92.0068 209.707C90.5566 209.979 89.2129 209.342 89.0283 208.319C88.8486 207.262 89.9004 206.203 91.3486 205.929C92.8271 205.666 94.1494 206.286 94.3379 207.334Z" fill="#fff"/>
</svg>
