<svg width="24" height="24" viewBox="0 0 43 43" fill="none" xmlns="http://www.w3.org/2000/svg">
<path d="M41.28 0H1.72C0.768625 0 0 0.768625 0 1.72V41.28C0 42.2314 0.768625 43 1.72 43H41.28C42.2314 43 43 42.2314 43 41.28V1.72C43 0.768625 42.2314 0 41.28 0ZM12.7549 36.6414H6.37475V16.1196H12.7549V36.6414ZM9.5675 13.3139C8.8361 13.3139 8.12113 13.097 7.513 12.6906C6.90487 12.2843 6.43089 11.7068 6.15099 11.031C5.8711 10.3553 5.79787 9.61177 5.94056 8.89443C6.08324 8.17709 6.43544 7.51817 6.95262 7.00099C7.46979 6.48382 8.12871 6.13162 8.84606 5.98893C9.5634 5.84624 10.3069 5.91948 10.9827 6.19937C11.6584 6.47926 12.2359 6.95324 12.6423 7.56138C13.0486 8.16951 13.2655 8.88448 13.2655 9.61587C13.2601 11.6584 11.6046 13.3139 9.5675 13.3139ZM36.6414 36.6414H30.2666V26.66C30.2666 24.2789 30.2236 21.2205 26.9503 21.2205C23.6339 21.2205 23.1233 23.8112 23.1233 26.488V36.6414H16.7539V16.1196H22.8706V18.9254H22.9566C23.8059 17.3129 25.886 15.609 28.9928 15.609C35.4535 15.609 36.6414 19.8606 36.6414 25.3861V36.6414V36.6414Z" fill="#1B1B1B"/>
</svg>
