<svg width="144" height="24" viewBox="0 0 144 24" fill="none" xmlns="http://www.w3.org/2000/svg">
<path d="M30.34 19L29.3 15.54H24.08L23.04 19H21.12L25.54 5.22H27.94L32.34 19H30.34ZM24.54 14H28.84L26.7 6.8L24.54 14ZM36.4648 19.24C35.7848 19.24 35.2448 19.04 34.8448 18.64C34.4582 18.2267 34.2648 17.6533 34.2648 16.92V4.22L36.1048 4V16.88C36.1048 17.1733 36.1515 17.3867 36.2448 17.52C36.3515 17.6533 36.5248 17.72 36.7648 17.72C37.0182 17.72 37.2448 17.68 37.4448 17.6L37.9248 18.88C37.4848 19.12 36.9982 19.24 36.4648 19.24ZM48.0866 13.42C48.0866 13.7267 48.0732 14.04 48.0466 14.36H41.3266C41.4066 15.52 41.6999 16.3733 42.2066 16.92C42.7132 17.4667 43.3666 17.74 44.1666 17.74C44.6732 17.74 45.1399 17.6667 45.5666 17.52C45.9932 17.3733 46.4399 17.14 46.9066 16.82L47.7066 17.92C46.5866 18.8 45.3599 19.24 44.0266 19.24C42.5599 19.24 41.4132 18.76 40.5866 17.8C39.7732 16.84 39.3666 15.52 39.3666 13.84C39.3666 12.7467 39.5399 11.78 39.8866 10.94C40.2466 10.0867 40.7532 9.42 41.4066 8.94C42.0732 8.46 42.8532 8.22 43.7466 8.22C45.1466 8.22 46.2199 8.68 46.9666 9.6C47.7132 10.52 48.0866 11.7933 48.0866 13.42ZM46.2666 12.88C46.2666 11.84 46.0599 11.0467 45.6466 10.5C45.2332 9.95333 44.6132 9.68 43.7866 9.68C42.2799 9.68 41.4599 10.7867 41.3266 13H46.2666V12.88ZM54.605 5.48C54.045 5.48 53.645 5.60667 53.405 5.86C53.165 6.1 53.045 6.48 53.045 7V8.46H55.605L55.405 9.88H53.045V19H51.205V9.88H49.325V8.46H51.205V7.02C51.205 6.11333 51.4917 5.38667 52.065 4.84C52.6517 4.28 53.465 4 54.505 4C54.985 4 55.4117 4.04667 55.785 4.14C56.1717 4.22 56.585 4.35333 57.025 4.54L56.445 5.88C55.845 5.61333 55.2317 5.48 54.605 5.48ZM62.6842 8.22C63.6442 8.22 64.3909 8.50667 64.9242 9.08C65.4709 9.65333 65.7442 10.44 65.7442 11.44V19H63.9042V11.7C63.9042 10.9533 63.7576 10.4267 63.4642 10.12C63.1842 9.81333 62.7709 9.66 62.2242 9.66C61.6776 9.66 61.1909 9.82 60.7642 10.14C60.3376 10.46 59.9376 10.9133 59.5642 11.5V19H57.7242V4.24L59.5642 4.04V9.92C60.3909 8.78667 61.4309 8.22 62.6842 8.22ZM71.283 8.46V19H69.443V8.46H71.283ZM70.343 3.4C70.7296 3.4 71.043 3.52 71.283 3.76C71.523 4 71.643 4.3 71.643 4.66C71.643 5.02 71.523 5.32 71.283 5.56C71.043 5.78667 70.7296 5.9 70.343 5.9C69.9696 5.9 69.663 5.78667 69.423 5.56C69.183 5.32 69.063 5.02 69.063 4.66C69.063 4.3 69.183 4 69.423 3.76C69.663 3.52 69.9696 3.4 70.343 3.4ZM82.3805 5.22V17.34H88.0405L87.8205 19H80.4805V5.22H82.3805ZM92.1814 8.46V19H90.3414V8.46H92.1814ZM91.2414 3.4C91.6281 3.4 91.9414 3.52 92.1814 3.76C92.4214 4 92.5414 4.3 92.5414 4.66C92.5414 5.02 92.4214 5.32 92.1814 5.56C91.9414 5.78667 91.6281 5.9 91.2414 5.9C90.8681 5.9 90.5614 5.78667 90.3214 5.56C90.0814 5.32 89.9614 5.02 89.9614 4.66C89.9614 4.3 90.0814 4 90.3214 3.76C90.5614 3.52 90.8681 3.4 91.2414 3.4ZM106.566 8.22C107.433 8.22 108.126 8.51333 108.646 9.1C109.166 9.67333 109.426 10.4533 109.426 11.44V19H107.586V11.7C107.586 10.34 107.093 9.66 106.106 9.66C105.586 9.66 105.146 9.81333 104.786 10.12C104.426 10.4133 104.039 10.88 103.626 11.52V19H101.786V11.7C101.786 10.34 101.293 9.66 100.306 9.66C99.7726 9.66 99.3259 9.81333 98.9659 10.12C98.6059 10.4267 98.2259 10.8933 97.8259 11.52V19H95.9859V8.46H97.5659L97.7259 10C98.5126 8.81333 99.5259 8.22 100.766 8.22C101.419 8.22 101.973 8.38667 102.426 8.72C102.893 9.05333 103.226 9.52 103.426 10.12C103.839 9.50667 104.293 9.04 104.786 8.72C105.293 8.38667 105.886 8.22 106.566 8.22ZM120.234 16.54C120.234 16.9667 120.308 17.2867 120.454 17.5C120.601 17.7 120.821 17.8533 121.114 17.96L120.694 19.24C120.148 19.1733 119.708 19.02 119.374 18.78C119.041 18.54 118.794 18.1667 118.634 17.66C117.928 18.7133 116.881 19.24 115.494 19.24C114.454 19.24 113.634 18.9467 113.034 18.36C112.434 17.7733 112.134 17.0067 112.134 16.06C112.134 14.94 112.534 14.08 113.334 13.48C114.148 12.88 115.294 12.58 116.774 12.58H118.394V11.8C118.394 11.0533 118.214 10.52 117.854 10.2C117.494 9.88 116.941 9.72 116.194 9.72C115.421 9.72 114.474 9.90667 113.354 10.28L112.894 8.94C114.201 8.46 115.414 8.22 116.534 8.22C117.774 8.22 118.701 8.52667 119.314 9.14C119.928 9.74 120.234 10.6 120.234 11.72V16.54ZM115.914 17.86C116.968 17.86 117.794 17.3133 118.394 16.22V13.8H117.014C115.068 13.8 114.094 14.52 114.094 15.96C114.094 16.5867 114.248 17.06 114.554 17.38C114.861 17.7 115.314 17.86 115.914 17.86Z" fill="white"/>
<path d="M11.6816 3L13.0524 6.70799L3.5462 11.532L13.0524 16.284L11.6816 20.064L0 13.836V9.22798L11.6816 3Z" fill="#5FE36A"/>
<path d="M131.388 3.00003L143.07 9.22804V13.836L131.388 20.064L130.017 16.284L139.524 11.532L130.017 6.70803L131.388 3.00003Z" fill="#5FE36A"/>
</svg>
